<?xml version="1.0" standalone="no"?>
<!DOCTYPE svg PUBLIC "-//W3C//DTD SVG 20010904//EN"
 "http://www.w3.org/TR/2001/REC-SVG-20010904/DTD/svg10.dtd">
<svg version="1.0" xmlns="http://www.w3.org/2000/svg"
 width="500.000000pt" height="500.000000pt" viewBox="0 0 500.000000 500.000000"
 preserveAspectRatio="xMidYMid meet">

<g transform="translate(0.000000,500.000000) scale(0.100000,-0.100000)"
fill="#000000" stroke="none">
<path d="M500 3575 l0 -255 275 0 275 0 0 -1015 0 -1015 315 0 315 0 0 1015 0
1015 1090 0 1090 0 0 -210 0 -210 -690 0 c-754 0 -736 1 -758 -57 -15 -41 -22
-374 -8 -400 10 -19 79 -77 225 -192 82 -64 356 -268 406 -301 28 -18 86 -61
130 -95 44 -34 130 -96 190 -139 61 -42 164 -118 230 -167 66 -49 152 -111
190 -136 39 -25 93 -60 121 -79 34 -23 62 -34 87 -34 32 0 41 6 74 50 21 27
56 73 78 102 101 133 135 192 135 234 0 25 -7 50 -17 62 -10 11 -197 149 -416
307 -220 158 -428 309 -464 336 l-66 49 446 0 c325 0 453 3 472 12 56 25 55
14 55 693 l0 627 -29 29 -29 29 -1861 0 -1861 0 0 -255z"/>
</g>
</svg>
